<svg xmlns="http://www.w3.org/2000/svg" xmlns:xlink="http://www.w3.org/1999/xlink" width="500" zoomAndPan="magnify" viewBox="0 0 375 374.999991" height="500" preserveAspectRatio="xMidYMid meet" version="1.0"><defs><clipPath id="5c8d198ff0"><path d="M 12 60.289062 L 363 60.289062 L 363 111 L 12 111 Z M 12 60.289062 " clip-rule="nonzero"/></clipPath><clipPath id="3630106837"><path d="M 11.003906 60.289062 L 364.253906 60.289062 L 364.253906 111.289062 L 11.003906 111.289062 Z M 11.003906 60.289062 " clip-rule="nonzero"/></clipPath><clipPath id="4cbec64ee3"><path d="M 12 162 L 363 162 L 363 212.90625 L 12 212.90625 Z M 12 162 " clip-rule="nonzero"/></clipPath><clipPath id="30869bc62e"><path d="M 11.003906 161.90625 L 364.253906 161.90625 L 364.253906 212.90625 L 11.003906 212.90625 Z M 11.003906 161.90625 " clip-rule="nonzero"/></clipPath><clipPath id="b1324d511b"><path d="M 12 264 L 363 264 L 363 314.527344 L 12 314.527344 Z M 12 264 " clip-rule="nonzero"/></clipPath><clipPath id="0177cb0956"><path d="M 11.003906 263.527344 L 364.253906 263.527344 L 364.253906 314.527344 L 11.003906 314.527344 Z M 11.003906 263.527344 " clip-rule="nonzero"/></clipPath></defs><g clip-path="url(#5c8d198ff0)"><path fill="#7648d0" d="M 12.472656 85.878906 C 12.472656 72.027344 23.699219 60.800781 37.550781 60.800781 L 337.441406 60.800781 C 351.289062 60.800781 362.515625 72.027344 362.515625 85.878906 C 362.515625 99.726562 351.289062 110.953125 337.441406 110.953125 L 37.550781 110.953125 C 23.699219 110.953125 12.472656 99.726562 12.472656 85.878906 Z M 12.472656 85.878906 " fill-opacity="1" fill-rule="nonzero"/></g><g clip-path="url(#3630106837)"><path stroke-linecap="butt" transform="matrix(1.023516, 0, 0, 1.023516, 11.961908, 60.290067)" fill="none" stroke-linejoin="miter" d="M 0.499014 25.000928 C 0.499014 11.467609 11.467643 0.49898 25.000962 0.49898 L 318.001518 0.49898 C 331.531021 0.49898 342.49965 11.467609 342.49965 25.000928 C 342.49965 38.530431 331.531021 49.49906 318.001518 49.49906 L 25.000962 49.49906 C 11.467643 49.49906 0.499014 38.530431 0.499014 25.000928 Z M 0.499014 25.000928 " stroke="#e8e8e8" stroke-width="1" stroke-opacity="1" stroke-miterlimit="4"/></g><g clip-path="url(#4cbec64ee3)"><path fill="#7648d0" d="M 12.472656 187.496094 C 12.472656 173.648438 23.699219 162.417969 37.550781 162.417969 L 337.441406 162.417969 C 351.289062 162.417969 362.515625 173.648438 362.515625 187.496094 C 362.515625 201.34375 351.289062 212.570312 337.441406 212.570312 L 37.550781 212.570312 C 23.699219 212.570312 12.472656 201.34375 12.472656 187.496094 Z M 12.472656 187.496094 " fill-opacity="1" fill-rule="nonzero"/></g><g clip-path="url(#30869bc62e)"><path stroke-linecap="butt" transform="matrix(1.023516, 0, 0, 1.023516, 11.961908, 161.908144)" fill="none" stroke-linejoin="miter" d="M 0.499014 25.00006 C 0.499014 11.470557 11.467643 0.498112 25.000962 0.498112 L 318.001518 0.498112 C 331.531021 0.498112 342.49965 11.470557 342.49965 25.00006 C 342.49965 38.529562 331.531021 49.498192 318.001518 49.498192 L 25.000962 49.498192 C 11.467643 49.498192 0.499014 38.529562 0.499014 25.00006 Z M 0.499014 25.00006 " stroke="#e8e8e8" stroke-width="1" stroke-opacity="1" stroke-miterlimit="4"/></g><g clip-path="url(#b1324d511b)"><path fill="#7648d0" d="M 12.472656 289.113281 C 12.472656 275.265625 23.699219 264.039062 37.550781 264.039062 L 337.441406 264.039062 C 351.289062 264.039062 362.515625 275.265625 362.515625 289.113281 C 362.515625 302.964844 351.289062 314.191406 337.441406 314.191406 L 37.550781 314.191406 C 23.699219 314.191406 12.472656 302.964844 12.472656 289.113281 Z M 12.472656 289.113281 " fill-opacity="1" fill-rule="nonzero"/></g><g clip-path="url(#0177cb0956)"><path stroke-linecap="butt" transform="matrix(1.023516, 0, 0, 1.023516, 11.961908, 263.526251)" fill="none" stroke-linejoin="miter" d="M 0.499014 24.999161 C 0.499014 11.469658 11.467643 0.501029 25.000962 0.501029 L 318.001518 0.501029 C 331.531021 0.501029 342.49965 11.469658 342.49965 24.999161 C 342.49965 38.53248 331.531021 49.501109 318.001518 49.501109 L 25.000962 49.501109 C 11.467643 49.501109 0.499014 38.53248 0.499014 24.999161 Z M 0.499014 24.999161 " stroke="#e8e8e8" stroke-width="1" stroke-opacity="1" stroke-miterlimit="4"/></g></svg>