<svg xmlns="http://www.w3.org/2000/svg" xmlns:xlink="http://www.w3.org/1999/xlink" width="500" zoomAndPan="magnify" viewBox="0 0 375 374.999991" height="500" preserveAspectRatio="xMidYMid meet" version="1.0"><defs><clipPath id="bf3e08c6a5"><path d="M 66 84 L 354.859375 84 L 354.859375 244 L 66 244 Z M 66 84 " clip-rule="nonzero"/></clipPath><clipPath id="7ffdae7fb3"><path d="M 8.359375 25 L 340 25 L 340 291 L 8.359375 291 Z M 8.359375 25 " clip-rule="nonzero"/></clipPath><clipPath id="94002a9f2e"><path d="M 279 296 L 333 296 L 333 350.65625 L 279 350.65625 Z M 279 296 " clip-rule="nonzero"/></clipPath><clipPath id="c26d106389"><path d="M 103 296 L 157 296 L 157 350.65625 L 103 350.65625 Z M 103 296 " clip-rule="nonzero"/></clipPath></defs><g clip-path="url(#bf3e08c6a5)"><path fill="#000000" d="M 210.546875 84.582031 C 252.992188 84.582031 295.441406 84.574219 337.890625 84.554688 C 341.5625 84.554688 345.070312 84.730469 348.316406 86.738281 C 352.359375 89.246094 354.917969 94.332031 354.105469 98.960938 C 351.179688 115.507812 348.148438 132.039062 345.234375 148.601562 C 341.59375 169.160156 337.976562 189.730469 334.382812 210.300781 C 334.089844 211.953125 333.65625 213.582031 333.253906 215.214844 C 331.546875 222.128906 327.796875 225.550781 320.785156 226.136719 C 307.121094 227.253906 293.4375 228.152344 279.777344 229.289062 C 265.171875 230.503906 250.582031 231.898438 235.976562 233.191406 C 229.753906 233.738281 223.523438 234.246094 217.292969 234.714844 C 202.402344 235.820312 187.542969 236.839844 172.675781 237.984375 C 154.21875 239.40625 135.765625 240.878906 117.316406 242.402344 C 112.769531 242.769531 108.230469 243.503906 103.683594 243.570312 C 97.199219 243.660156 92.644531 240.09375 91.328125 233.671875 C 89.203125 223.335938 87.460938 212.917969 85.574219 202.53125 C 81.320312 179.15625 77.070312 155.777344 72.832031 132.398438 C 70.90625 121.78125 68.960938 111.15625 67.082031 100.527344 C 65.539062 91.78125 71.261719 84.910156 80.316406 84.644531 C 84.175781 84.535156 88.035156 84.617188 91.894531 84.617188 Z M 158.082031 145.183594 L 145.816406 145.183594 C 145.570312 145.183594 145.316406 145.183594 145.09375 145.183594 C 139 145.15625 138.382812 144.414062 138.894531 151.3125 C 139.496094 159.445312 140.054688 167.582031 140.730469 175.710938 C 141.027344 179.246094 141.832031 179.859375 145.273438 179.636719 C 151.019531 179.265625 156.757812 178.871094 162.492188 178.449219 C 166.3125 178.160156 170.117188 177.71875 173.941406 177.488281 C 176.421875 177.339844 178.179688 176.957031 177.164062 173.730469 C 176.746094 172.410156 177.015625 170.863281 176.988281 169.421875 C 176.878906 162.46875 176.710938 155.476562 176.703125 148.5 C 176.703125 145.996094 175.640625 145.121094 173.226562 145.164062 C 168.183594 145.25 163.140625 145.183594 158.082031 145.183594 Z M 211.886719 100.417969 C 206.125 100.417969 200.355469 100.484375 194.59375 100.390625 C 192.175781 100.355469 191.058594 101.183594 191.195312 103.71875 C 191.628906 111.855469 191.964844 119.996094 192.347656 128.136719 C 192.433594 129.910156 193.425781 130.621094 195.144531 130.621094 C 198.027344 130.59375 200.910156 130.621094 203.789062 130.621094 C 211.734375 130.621094 219.675781 130.589844 227.578125 130.621094 C 229.828125 130.621094 231.40625 129.890625 231.460938 127.453125 C 231.644531 119.28125 231.765625 111.117188 231.867188 102.949219 C 231.867188 101.21875 230.984375 100.378906 229.1875 100.390625 C 223.425781 100.445312 217.65625 100.417969 211.886719 100.417969 Z M 269.441406 100.417969 C 263.671875 100.417969 257.910156 100.46875 252.140625 100.417969 C 249.589844 100.390625 247.921875 101.199219 247.878906 104.019531 C 247.753906 111.960938 247.660156 119.875 247.511719 127.800781 C 247.46875 130.011719 248.617188 130.660156 250.632812 130.65625 C 261.6875 130.625 272.738281 130.65625 283.792969 130.65625 C 285.421875 130.65625 286.597656 130.058594 286.730469 128.257812 C 287.335938 120.136719 287.894531 112.011719 288.527344 103.886719 C 288.71875 101.464844 287.820312 100.375 285.296875 100.414062 C 280.015625 100.488281 274.726562 100.421875 269.441406 100.417969 Z M 155.433594 100.417969 C 149.667969 100.417969 143.898438 100.347656 138.128906 100.445312 C 134.65625 100.496094 134.4375 100.628906 134.65625 104.230469 C 135.113281 111.890625 135.820312 119.535156 136.386719 127.183594 C 136.597656 130.003906 138.269531 130.660156 140.796875 130.660156 C 151.132812 130.589844 161.472656 130.566406 171.808594 130.683594 C 174.578125 130.71875 175.730469 129.800781 175.660156 126.992188 C 175.460938 119.300781 175.292969 111.601562 175.335938 103.917969 C 175.335938 100.855469 173.8125 100.363281 171.304688 100.402344 C 166.015625 100.46875 160.726562 100.414062 155.433594 100.417969 Z M 212.121094 145.191406 C 206.824219 145.191406 201.523438 145.238281 196.234375 145.164062 C 193.996094 145.136719 192.527344 145.578125 192.667969 148.292969 C 193.101562 156.929688 193.441406 165.578125 193.828125 174.21875 C 193.90625 175.921875 194.710938 176.839844 196.554688 176.738281 C 205.191406 176.242188 213.832031 175.8125 222.472656 175.292969 C 224.140625 175.1875 225.777344 174.675781 227.433594 174.523438 C 229.628906 174.324219 230.15625 173.035156 230.171875 171.089844 C 230.238281 163.640625 230.257812 156.152344 230.527344 148.691406 C 230.640625 145.597656 229.128906 145.101562 226.585938 145.152344 C 221.761719 145.25 216.941406 145.179688 212.121094 145.191406 Z M 266.285156 145.191406 C 260.746094 145.191406 255.210938 145.214844 249.667969 145.191406 C 247.722656 145.191406 246.460938 145.6875 246.441406 147.984375 C 246.375 155.6875 246.21875 163.375 246.09375 171.097656 C 246.058594 173.28125 247.089844 173.972656 249.253906 173.824219 C 256.699219 173.328125 264.121094 173.015625 271.550781 172.53125 C 274.414062 172.347656 277.261719 171.816406 280.125 171.609375 C 281.925781 171.476562 282.644531 170.476562 282.890625 168.902344 C 283.183594 167.011719 283.523438 165.125 283.699219 163.226562 C 284.144531 158.445312 284.453125 153.652344 284.929688 148.882812 C 285.242188 145.742188 284.96875 145.273438 281.453125 145.210938 C 276.402344 145.105469 271.359375 145.175781 266.285156 145.175781 Z M 107.296875 145.191406 C 103.917969 145.191406 100.542969 145.140625 97.167969 145.191406 C 92.257812 145.28125 91.976562 145.355469 92.664062 150.015625 C 94.0625 159.515625 95.757812 168.96875 97.414062 178.425781 C 97.710938 180.144531 98.550781 181.660156 100.710938 181.582031 C 107.453125 181.347656 114.207031 181.289062 120.929688 180.773438 C 124.488281 180.5 124.902344 179.78125 124.6875 176.078125 C 124.164062 167.671875 123.457031 159.277344 122.785156 150.882812 C 122.730469 150.175781 122.289062 149.5 122.246094 148.792969 C 122.066406 146.199219 120.984375 144.945312 118.144531 145.125 C 114.539062 145.347656 110.910156 145.179688 107.296875 145.175781 Z M 178.480469 207.335938 L 178.089844 207.335938 C 178.089844 203.242188 178.136719 199.140625 178.089844 195.046875 C 178.058594 192.609375 176.785156 191.699219 174.320312 192.066406 C 171.46875 192.464844 168.585938 192.609375 165.710938 192.804688 C 159.257812 193.253906 152.765625 193.75 146.285156 194.050781 C 143.714844 194.171875 142.964844 195.351562 143.152344 197.695312 C 143.792969 205.605469 144.371094 213.515625 144.980469 221.429688 C 145.175781 223.910156 147.007812 223.777344 148.699219 223.667969 C 157.578125 223.09375 166.449219 222.40625 175.332031 221.90625 C 177.914062 221.761719 178.5625 220.472656 178.519531 218.203125 C 178.425781 214.570312 178.480469 210.949219 178.480469 207.335938 Z M 100.847656 100.421875 C 96.289062 100.421875 91.730469 100.503906 87.171875 100.394531 C 84.601562 100.335938 83.699219 101.386719 84.144531 103.867188 C 85.578125 111.613281 87.074219 119.351562 88.371094 127.121094 C 88.820312 129.847656 90.257812 130.675781 92.789062 130.65625 C 100.949219 130.59375 109.105469 130.574219 117.261719 130.65625 C 119.890625 130.679688 120.566406 129.410156 120.378906 127.101562 C 119.757812 119.464844 119.136719 111.832031 118.605469 104.195312 C 118.421875 101.535156 117.234375 100.339844 114.527344 100.398438 C 109.96875 100.492188 105.40625 100.421875 100.847656 100.421875 Z M 229.0625 204.101562 C 229.0625 199.605469 229.109375 195.5 229.0625 191.40625 C 229.0625 189.707031 228.289062 189.015625 226.324219 189.164062 C 219.605469 189.660156 212.867188 189.847656 206.140625 190.269531 C 203.03125 190.46875 199.949219 191.042969 196.839844 191.234375 C 194.597656 191.367188 194.054688 192.503906 194.097656 194.5 C 194.25 201.25 194.28125 208.007812 194.433594 214.757812 C 194.464844 215.9375 194.59375 217.269531 195.167969 218.234375 C 195.664062 219.046875 196.878906 219.96875 197.738281 219.929688 C 203.742188 219.65625 209.753906 219.289062 215.730469 218.664062 C 219.953125 218.21875 224.132812 217.324219 228.332031 216.628906 C 228.570312 212.316406 228.828125 208.007812 229.0625 204.101562 Z M 244.949219 202.492188 L 244.753906 202.492188 C 244.753906 205.617188 244.71875 208.75 244.753906 211.878906 C 244.816406 216.054688 244.855469 216.242188 248.640625 215.9375 C 257.96875 215.183594 267.277344 214.226562 276.59375 213.367188 C 278.195312 213.222656 279.269531 212.703125 279.410156 210.839844 C 279.90625 204.140625 280.597656 197.4375 280.96875 190.742188 C 281.210938 186.46875 280.628906 186.105469 276.609375 186.488281 C 274.222656 186.710938 271.828125 186.902344 269.433594 186.984375 C 264.378906 187.183594 259.304688 187.0625 254.277344 187.507812 C 245.082031 188.328125 245.09375 188.457031 244.949219 197.4375 C 244.929688 199.105469 244.953125 200.789062 244.953125 202.476562 Z M 321.644531 100.421875 C 317.789062 100.421875 313.933594 100.375 310.078125 100.421875 C 305.824219 100.488281 305.507812 100.492188 304.988281 104.546875 C 304.027344 112.164062 303.5 119.828125 302.746094 127.472656 C 302.546875 129.542969 303.328125 130.625 305.539062 130.617188 C 313.25 130.585938 320.960938 130.554688 328.667969 130.644531 C 331.320312 130.675781 332.5625 129.597656 332.996094 126.972656 C 334.285156 119.167969 335.726562 111.390625 337.15625 103.609375 C 337.539062 101.511719 336.953125 100.382812 334.675781 100.402344 C 330.316406 100.453125 325.964844 100.421875 321.644531 100.421875 Z M 128.78125 221.050781 C 128.257812 214.101562 127.75 207.152344 127.179688 200.203125 C 127.101562 199.257812 126.582031 198.351562 126.484375 197.40625 C 126.257812 195.277344 125.164062 194.59375 123.074219 194.757812 C 117.082031 195.222656 111.074219 195.550781 105.078125 195.949219 C 101.339844 196.195312 100.863281 196.644531 101.480469 200.3125 C 102.839844 208.359375 104.367188 216.382812 105.792969 224.417969 C 106.140625 226.402344 107.144531 227.449219 109.203125 227.292969 C 114.238281 226.90625 119.269531 226.488281 124.304688 226.105469 C 129.015625 225.742188 129.015625 225.757812 128.78125 221.070312 Z M 315.738281 145.179688 C 311.878906 145.179688 308.023438 145.226562 304.171875 145.179688 C 302.046875 145.144531 301.238281 146.128906 301.078125 148.1875 C 300.582031 154.640625 299.9375 161.09375 299.375 167.578125 C 299.128906 170.382812 299.726562 171.054688 302.355469 170.851562 C 306.1875 170.566406 310.003906 170.15625 313.835938 169.902344 C 316.71875 169.71875 319.648438 169.902344 322.492188 169.5 C 323.644531 169.332031 325.347656 168.128906 325.554688 167.136719 C 326.851562 161.035156 327.785156 154.859375 328.847656 148.710938 C 329.253906 146.332031 328.46875 145.082031 325.867188 145.15625 C 322.488281 145.253906 319.113281 145.179688 315.738281 145.179688 Z M 300.257812 211.75 C 305.445312 211.253906 310.222656 210.757812 315.007812 210.371094 C 316.949219 210.207031 318.164062 209.375 318.484375 207.390625 C 319.6875 200.296875 320.925781 193.207031 322.015625 186.101562 C 322.105469 185.539062 321.1875 184.261719 320.78125 184.28125 C 313.582031 184.613281 306.390625 185.035156 299.207031 185.546875 C 297.390625 185.683594 297.1875 187.242188 297.0625 188.769531 C 296.609375 194.515625 296.070312 200.253906 295.609375 206 C 295.507812 207.199219 295.234375 208.484375 295.609375 209.574219 C 295.894531 210.445312 296.914062 211.277344 297.808594 211.664062 C 298.621094 212.042969 299.703125 211.75 300.257812 211.75 Z M 300.257812 211.75 " fill-opacity="1" fill-rule="nonzero"/></g><g clip-path="url(#7ffdae7fb3)"><path fill="#000000" d="M 216.351562 290.101562 C 179.433594 290.101562 142.507812 290.023438 105.59375 290.171875 C 98.148438 290.203125 92.003906 288.035156 86.859375 282.628906 C 79.636719 275.039062 79.097656 263 84.238281 253.710938 C 86.105469 250.339844 88.210938 247.089844 89.855469 243.621094 C 90.667969 241.898438 90.949219 240.09375 90.699219 238.207031 C 85.789062 210.554688 80.679688 182.925781 75.769531 155.277344 C 71.214844 129.742188 66.835938 104.179688 62.34375 78.632812 C 60.851562 70.113281 59.292969 61.609375 57.910156 53.074219 C 57.378906 49.828125 55.925781 48.113281 52.492188 47.550781 C 43.007812 46 33.574219 44.117188 24.144531 42.371094 C 21.308594 41.851562 18.445312 41.472656 15.636719 40.855469 C 11.167969 39.859375 8.378906 36.148438 8.835938 32.023438 C 9.332031 27.707031 13.300781 24.480469 18.171875 25.074219 C 24.128906 25.824219 30.019531 27.019531 35.933594 28.089844 C 46.328125 29.972656 56.703125 31.96875 67.117188 33.761719 C 69.636719 34.191406 70.847656 35.191406 71.269531 37.796875 C 72.429688 44.898438 73.894531 51.953125 75.183594 59.039062 C 79.003906 80.066406 82.871094 101.082031 86.574219 122.132812 C 91.195312 148.386719 95.628906 174.675781 100.222656 200.9375 C 102.457031 213.699219 104.871094 226.4375 107.238281 239.160156 C 107.863281 242.523438 107.785156 245.515625 105.699219 248.59375 C 102.894531 252.777344 101.027344 257.589844 98.253906 261.804688 C 94.945312 266.835938 97.933594 274.800781 105.605469 274.113281 C 107.277344 273.964844 108.980469 274.113281 110.667969 274.113281 L 326.390625 274.113281 C 328.316406 274.113281 330.277344 273.960938 332.167969 274.234375 C 332.679688 274.304688 333.179688 274.421875 333.664062 274.589844 C 334.152344 274.757812 334.621094 274.972656 335.066406 275.230469 C 335.511719 275.488281 335.929688 275.785156 336.320312 276.125 C 336.707031 276.460938 337.0625 276.835938 337.378906 277.242188 C 337.695312 277.648438 337.96875 278.082031 338.203125 278.542969 C 338.4375 279 338.621094 279.480469 338.761719 279.976562 C 338.902344 280.472656 338.996094 280.976562 339.039062 281.492188 C 339.082031 282.003906 339.074219 282.515625 339.019531 283.03125 C 338.625 287.382812 336.066406 289.804688 331.445312 290.070312 C 329.523438 290.183594 327.585938 290.109375 325.65625 290.109375 Z M 216.351562 290.101562 " fill-opacity="1" fill-rule="nonzero"/></g><g clip-path="url(#94002a9f2e)"><path fill="#000000" d="M 279.519531 323.65625 C 278.527344 311.246094 290.441406 296.714844 305.792969 296.960938 C 320.414062 297.1875 332.535156 307.441406 332.746094 323.019531 C 332.949219 337.71875 322.816406 350.167969 306.101562 350.167969 C 288.730469 350.164062 278.921875 335.699219 279.519531 323.65625 Z M 306.324219 311.464844 C 299.113281 311.464844 293.832031 316.648438 293.949219 323.652344 C 294.0625 330.367188 299.765625 335.847656 306.65625 335.859375 C 312.292969 335.859375 318.515625 329.269531 318.46875 323.34375 C 318.394531 317.007812 312.75 311.484375 306.304688 311.464844 Z M 306.324219 311.464844 " fill-opacity="1" fill-rule="nonzero"/></g><g clip-path="url(#c26d106389)"><path fill="#000000" d="M 156.730469 323.734375 C 156.671875 338.28125 144.855469 350.46875 130.882812 350.398438 C 115.636719 350.324219 104.363281 338.542969 103.933594 323.253906 C 103.535156 309.054688 116.34375 296.722656 130.574219 296.828125 C 144.230469 296.953125 157.996094 309.492188 156.730469 323.734375 Z M 142.289062 324.394531 C 142.597656 317.445312 138.019531 311.894531 131.652344 311.488281 C 124.375 311.046875 118.933594 315.769531 118.488281 322.613281 C 118.023438 329.652344 122.730469 335.238281 129.90625 335.613281 C 130.683594 335.667969 131.457031 335.644531 132.230469 335.539062 C 133.003906 335.4375 133.761719 335.257812 134.496094 335.003906 C 135.234375 334.746094 135.9375 334.421875 136.609375 334.023438 C 137.28125 333.625 137.90625 333.164062 138.484375 332.640625 C 139.0625 332.117188 139.582031 331.539062 140.042969 330.910156 C 140.507812 330.28125 140.902344 329.613281 141.226562 328.90625 C 141.554688 328.199219 141.808594 327.464844 141.988281 326.703125 C 142.164062 325.945312 142.265625 325.175781 142.289062 324.394531 Z M 142.289062 324.394531 " fill-opacity="1" fill-rule="nonzero"/></g></svg>
