<svg xmlns="http://www.w3.org/2000/svg" xmlns:xlink="http://www.w3.org/1999/xlink" width="500" zoomAndPan="magnify" viewBox="0 0 375 374.999991" height="500" preserveAspectRatio="xMidYMid meet" version="1.0"><defs><g/></defs><path fill="#1c486f" d="M 150.445312 67.6875 C 153.261719 67.6875 155.546875 65.402344 155.546875 62.589844 L 155.546875 52.71875 C 155.546875 39.953125 165.945312 29.550781 178.753906 29.550781 C 191.558594 29.550781 201.957031 39.953125 201.957031 52.71875 L 201.957031 62.589844 C 201.957031 65.402344 204.242188 67.6875 207.058594 67.6875 C 209.871094 67.6875 212.15625 65.402344 212.15625 62.589844 L 212.15625 54.105469 C 212.15625 36.28125 198.777344 20.621094 180.953125 19.4375 C 161.582031 18.171875 145.347656 33.589844 145.347656 52.71875 L 145.347656 62.589844 C 145.347656 65.402344 147.632812 67.6875 150.445312 67.6875 Z M 150.445312 67.6875 " fill-opacity="1" fill-rule="nonzero"/><path fill="#8c52ff" d="M 257.671875 200.238281 L 246.457031 91.136719 C 245.558594 82.449219 238.257812 75.882812 229.53125 75.882812 L 127.972656 75.882812 C 119.246094 75.882812 111.945312 82.492188 111.046875 91.136719 L 108.234375 118.300781 C 106.359375 136.53125 123.691406 150.765625 141.1875 145.421875 L 150.691406 142.527344 C 161.5 139.222656 173.574219 144.6875 177.8125 156.679688 C 179.28125 160.839844 179.078125 165.40625 177.773438 169.648438 L 173.574219 183.351562 C 167.78125 202.277344 181.933594 221.40625 201.714844 221.40625 L 238.582031 221.40625 C 249.964844 221.363281 258.855469 211.535156 257.671875 200.238281 Z M 257.671875 200.238281 " fill-opacity="1" fill-rule="nonzero"/><path fill="#1c486f" d="M 154.28125 154.191406 L 99.34375 170.953125 C 91.347656 173.402344 90.777344 184.496094 98.488281 187.757812 L 111.578125 193.265625 C 118.511719 196.199219 124.058594 201.707031 126.996094 208.679688 L 132.5 221.773438 C 135.765625 229.480469 146.859375 228.910156 149.304688 220.917969 L 166.066406 165.976562 C 168.3125 158.757812 161.539062 151.988281 154.28125 154.191406 Z M 154.28125 154.191406 " fill-opacity="1" fill-rule="nonzero"/><g fill="#ef8121" fill-opacity="0.4"><g transform="translate(64.937701, 307.571317)"><g><path d="M 3 0 L 3 -67.828125 L 30.15625 -67.828125 L 30.15625 -54.71875 L 16.8125 -54.71875 L 16.8125 -41.53125 L 29.609375 -41.53125 L 29.609375 -28.734375 L 16.8125 -28.734375 L 16.8125 -13.1875 L 31.03125 -13.1875 L 31.03125 0 Z M 3 0 "/></g></g></g><g fill="#ef8121" fill-opacity="0.4"><g transform="translate(97.462621, 307.571317)"><g><path d="M 2.765625 -57.796875 L 16.265625 -57.796875 L 16.265625 -51.078125 C 16.898438 -53.554688 17.976562 -55.398438 19.5 -56.609375 C 21.03125 -57.816406 23.1875 -58.421875 25.96875 -58.421875 C 28.238281 -58.421875 30.203125 -57.90625 31.859375 -56.875 C 33.515625 -55.851562 34.6875 -54.445312 35.375 -52.65625 C 36.53125 -54.65625 37.816406 -56.113281 39.234375 -57.03125 C 40.660156 -57.957031 42.632812 -58.421875 45.15625 -58.421875 C 49.6875 -58.421875 52.832031 -57.039062 54.59375 -54.28125 C 56.351562 -51.519531 57.234375 -47.503906 57.234375 -42.234375 L 57.078125 0 L 43.1875 0 L 43.1875 -42.484375 C 43.1875 -46.210938 42.238281 -48.078125 40.34375 -48.078125 C 39.03125 -48.078125 38.082031 -47.429688 37.5 -46.140625 C 36.925781 -44.859375 36.640625 -43.320312 36.640625 -41.53125 L 36.640625 0 L 22.8125 0 L 22.8125 -42.484375 C 22.8125 -44.109375 22.640625 -45.421875 22.296875 -46.421875 C 21.960938 -47.421875 21.242188 -47.921875 20.140625 -47.921875 C 18.710938 -47.921875 17.707031 -47.222656 17.125 -45.828125 C 16.550781 -44.429688 16.265625 -42.757812 16.265625 -40.8125 L 16.265625 0 L 2.765625 0 Z M 2.765625 -57.796875 "/></g></g></g><g fill="#ef8121" fill-opacity="0.4"><g transform="translate(157.30217, 307.571317)"><g><path d="M 13.265625 0.625 C 8.785156 0.625 5.71875 -0.859375 4.0625 -3.828125 C 2.40625 -6.804688 1.578125 -11.054688 1.578125 -16.578125 C 1.578125 -21.109375 2.164062 -24.582031 3.34375 -27 C 4.53125 -29.425781 6.175781 -31.203125 8.28125 -32.328125 C 10.394531 -33.460938 13.609375 -34.710938 17.921875 -36.078125 L 21.71875 -37.34375 L 21.71875 -43.265625 C 21.71875 -44.796875 21.410156 -45.96875 20.796875 -46.78125 C 20.191406 -47.59375 19.472656 -48 18.640625 -48 C 17.898438 -48 17.253906 -47.65625 16.703125 -46.96875 C 16.148438 -46.289062 15.875 -45.375 15.875 -44.21875 L 15.875 -40.734375 L 2.453125 -40.734375 L 2.453125 -42.640625 C 2.453125 -48.316406 3.78125 -52.363281 6.4375 -54.78125 C 9.09375 -57.207031 13.421875 -58.421875 19.421875 -58.421875 C 24.210938 -58.421875 28.109375 -57.171875 31.109375 -54.671875 C 34.109375 -52.171875 35.609375 -48.632812 35.609375 -44.0625 L 35.609375 0 L 21.875 0 L 21.875 -6.875 C 21.1875 -4.5 20.09375 -2.65625 18.59375 -1.34375 C 17.09375 -0.03125 15.316406 0.625 13.265625 0.625 Z M 18.71875 -10.109375 C 19.769531 -10.109375 20.519531 -10.539062 20.96875 -11.40625 C 21.414062 -12.28125 21.640625 -13.347656 21.640625 -14.609375 L 21.640625 -30.71875 C 19.578125 -29.925781 18.054688 -28.921875 17.078125 -27.703125 C 16.109375 -26.492188 15.625 -24.8125 15.625 -22.65625 L 15.625 -15.234375 C 15.625 -11.816406 16.65625 -10.109375 18.71875 -10.109375 Z M 18.71875 -10.109375 "/></g></g></g><g fill="#8c52ff" fill-opacity="1"><g transform="translate(64.937701, 307.571317)"><g><path d="M 3 0 L 3 -67.828125 L 30.15625 -67.828125 L 30.15625 -54.71875 L 16.8125 -54.71875 L 16.8125 -41.53125 L 29.609375 -41.53125 L 29.609375 -28.734375 L 16.8125 -28.734375 L 16.8125 -13.1875 L 31.03125 -13.1875 L 31.03125 0 Z M 3 0 "/></g></g></g><g fill="#8c52ff" fill-opacity="1"><g transform="translate(97.462621, 307.571317)"><g><path d="M 2.765625 -57.796875 L 16.265625 -57.796875 L 16.265625 -51.078125 C 16.898438 -53.554688 17.976562 -55.398438 19.5 -56.609375 C 21.03125 -57.816406 23.1875 -58.421875 25.96875 -58.421875 C 28.238281 -58.421875 30.203125 -57.90625 31.859375 -56.875 C 33.515625 -55.851562 34.6875 -54.445312 35.375 -52.65625 C 36.53125 -54.65625 37.816406 -56.113281 39.234375 -57.03125 C 40.660156 -57.957031 42.632812 -58.421875 45.15625 -58.421875 C 49.6875 -58.421875 52.832031 -57.039062 54.59375 -54.28125 C 56.351562 -51.519531 57.234375 -47.503906 57.234375 -42.234375 L 57.078125 0 L 43.1875 0 L 43.1875 -42.484375 C 43.1875 -46.210938 42.238281 -48.078125 40.34375 -48.078125 C 39.03125 -48.078125 38.082031 -47.429688 37.5 -46.140625 C 36.925781 -44.859375 36.640625 -43.320312 36.640625 -41.53125 L 36.640625 0 L 22.8125 0 L 22.8125 -42.484375 C 22.8125 -44.109375 22.640625 -45.421875 22.296875 -46.421875 C 21.960938 -47.421875 21.242188 -47.921875 20.140625 -47.921875 C 18.710938 -47.921875 17.707031 -47.222656 17.125 -45.828125 C 16.550781 -44.429688 16.265625 -42.757812 16.265625 -40.8125 L 16.265625 0 L 2.765625 0 Z M 2.765625 -57.796875 "/></g></g></g><g fill="#8c52ff" fill-opacity="1"><g transform="translate(157.30217, 307.571317)"><g><path d="M 13.265625 0.625 C 8.785156 0.625 5.71875 -0.859375 4.0625 -3.828125 C 2.40625 -6.804688 1.578125 -11.054688 1.578125 -16.578125 C 1.578125 -21.109375 2.164062 -24.582031 3.34375 -27 C 4.53125 -29.425781 6.175781 -31.203125 8.28125 -32.328125 C 10.394531 -33.460938 13.609375 -34.710938 17.921875 -36.078125 L 21.71875 -37.34375 L 21.71875 -43.265625 C 21.71875 -44.796875 21.410156 -45.96875 20.796875 -46.78125 C 20.191406 -47.59375 19.472656 -48 18.640625 -48 C 17.898438 -48 17.253906 -47.65625 16.703125 -46.96875 C 16.148438 -46.289062 15.875 -45.375 15.875 -44.21875 L 15.875 -40.734375 L 2.453125 -40.734375 L 2.453125 -42.640625 C 2.453125 -48.316406 3.78125 -52.363281 6.4375 -54.78125 C 9.09375 -57.207031 13.421875 -58.421875 19.421875 -58.421875 C 24.210938 -58.421875 28.109375 -57.171875 31.109375 -54.671875 C 34.109375 -52.171875 35.609375 -48.632812 35.609375 -44.0625 L 35.609375 0 L 21.875 0 L 21.875 -6.875 C 21.1875 -4.5 20.09375 -2.65625 18.59375 -1.34375 C 17.09375 -0.03125 15.316406 0.625 13.265625 0.625 Z M 18.71875 -10.109375 C 19.769531 -10.109375 20.519531 -10.539062 20.96875 -11.40625 C 21.414062 -12.28125 21.640625 -13.347656 21.640625 -14.609375 L 21.640625 -30.71875 C 19.578125 -29.925781 18.054688 -28.921875 17.078125 -27.703125 C 16.109375 -26.492188 15.625 -24.8125 15.625 -22.65625 L 15.625 -15.234375 C 15.625 -11.816406 16.65625 -10.109375 18.71875 -10.109375 Z M 18.71875 -10.109375 "/></g></g></g><g fill="#1c486f" fill-opacity="1"><g transform="translate(195.452027, 307.571317)"><g><path d="M 1.109375 0 L 1.109375 -8.453125 L 15.46875 -46.890625 L 1.734375 -46.890625 L 1.734375 -57.796875 L 29.765625 -57.796875 L 29.765625 -48.390625 L 16.1875 -10.34375 L 29.921875 -10.34375 L 29.921875 0 Z M 1.109375 0 "/></g></g></g><g fill="#1c486f" fill-opacity="1"><g transform="translate(225.924412, 307.571317)"><g><path d="M 19.578125 0.625 C 8.054688 0.625 2.296875 -5.347656 2.296875 -17.296875 L 2.296875 -40.5 C 2.296875 -45.976562 3.832031 -50.332031 6.90625 -53.5625 C 9.988281 -56.800781 14.210938 -58.421875 19.578125 -58.421875 C 24.953125 -58.421875 29.175781 -56.800781 32.25 -53.5625 C 35.332031 -50.332031 36.875 -45.976562 36.875 -40.5 L 36.875 -17.296875 C 36.875 -5.347656 31.109375 0.625 19.578125 0.625 Z M 19.578125 -10.03125 C 20.679688 -10.03125 21.492188 -10.421875 22.015625 -11.203125 C 22.546875 -11.992188 22.8125 -13.078125 22.8125 -14.453125 L 22.8125 -42.71875 C 22.8125 -46.082031 21.734375 -47.765625 19.578125 -47.765625 C 17.421875 -47.765625 16.34375 -46.082031 16.34375 -42.71875 L 16.34375 -14.453125 C 16.34375 -13.078125 16.601562 -11.992188 17.125 -11.203125 C 17.65625 -10.421875 18.472656 -10.03125 19.578125 -10.03125 Z M 19.578125 -10.03125 "/></g></g></g><g fill="#1c486f" fill-opacity="1"><g transform="translate(265.159581, 307.571317)"><g><path d="M 2.765625 -57.796875 L 16.578125 -57.796875 L 16.578125 -50.453125 C 17.160156 -52.816406 18.160156 -54.734375 19.578125 -56.203125 C 21.003906 -57.679688 22.898438 -58.421875 25.265625 -58.421875 C 29.160156 -58.421875 32.039062 -57.222656 33.90625 -54.828125 C 35.78125 -52.429688 36.71875 -49.023438 36.71875 -44.609375 L 36.71875 0 L 23.140625 0 L 23.140625 -43.1875 C 23.140625 -44.445312 22.890625 -45.523438 22.390625 -46.421875 C 21.890625 -47.316406 21.109375 -47.765625 20.046875 -47.765625 C 18.628906 -47.765625 17.695312 -47.117188 17.25 -45.828125 C 16.800781 -44.535156 16.578125 -42.8125 16.578125 -40.65625 L 16.578125 0 L 2.765625 0 Z M 2.765625 -57.796875 "/></g></g></g><g fill="#424141" fill-opacity="1"><g transform="translate(110.845125, 341.355497)"><g><path d="M 2.03125 0 L 2.03125 -13.90625 L 10.46875 -13.90625 L 10.46875 -12.28125 L 3.78125 -12.28125 L 3.78125 -7.890625 L 9.984375 -7.890625 L 9.984375 -6.28125 L 3.78125 -6.28125 L 3.78125 -1.625 L 10.6875 -1.625 L 10.6875 0 Z M 2.03125 0 "/></g></g></g><g fill="#424141" fill-opacity="1"><g transform="translate(122.828749, 341.355497)"><g><path d="M 1.53125 -4.25 L 1.53125 -5.828125 L 7.59375 -5.828125 L 7.59375 -4.25 Z M 1.53125 -4.25 "/></g></g></g><g fill="#424141" fill-opacity="1"><g transform="translate(131.950605, 341.355497)"><g><path d="M 8.1875 0.265625 C 7.164062 0.265625 6.222656 0.0859375 5.359375 -0.265625 C 4.503906 -0.628906 3.757812 -1.132812 3.125 -1.78125 C 2.5 -2.425781 2.015625 -3.1875 1.671875 -4.0625 C 1.328125 -4.945312 1.15625 -5.910156 1.15625 -6.953125 C 1.15625 -8.003906 1.328125 -8.96875 1.671875 -9.84375 C 2.015625 -10.726562 2.5 -11.488281 3.125 -12.125 C 3.757812 -12.769531 4.503906 -13.269531 5.359375 -13.625 C 6.222656 -13.988281 7.164062 -14.171875 8.1875 -14.171875 C 9.289062 -14.171875 10.300781 -13.96875 11.21875 -13.5625 C 12.132812 -13.15625 12.921875 -12.578125 13.578125 -11.828125 C 14.234375 -11.085938 14.71875 -10.207031 15.03125 -9.1875 L 13.15625 -9.1875 C 12.800781 -10.1875 12.179688 -10.972656 11.296875 -11.546875 C 10.421875 -12.128906 9.40625 -12.421875 8.25 -12.421875 C 7.21875 -12.421875 6.300781 -12.1875 5.5 -11.71875 C 4.707031 -11.257812 4.082031 -10.617188 3.625 -9.796875 C 3.164062 -8.972656 2.9375 -8.023438 2.9375 -6.953125 C 2.9375 -5.878906 3.164062 -4.929688 3.625 -4.109375 C 4.082031 -3.285156 4.707031 -2.640625 5.5 -2.171875 C 6.300781 -1.710938 7.21875 -1.484375 8.25 -1.484375 C 9.425781 -1.484375 10.472656 -1.785156 11.390625 -2.390625 C 12.304688 -3.003906 12.941406 -3.835938 13.296875 -4.890625 L 15.140625 -4.890625 C 14.867188 -3.859375 14.394531 -2.957031 13.71875 -2.1875 C 13.050781 -1.414062 12.242188 -0.8125 11.296875 -0.375 C 10.347656 0.0507812 9.3125 0.265625 8.1875 0.265625 Z M 8.1875 0.265625 "/></g></g></g><g fill="#424141" fill-opacity="1"><g transform="translate(148.167253, 341.355497)"><g><path d="M 8.34375 0.265625 C 6.9375 0.265625 5.691406 -0.0390625 4.609375 -0.65625 C 3.523438 -1.28125 2.675781 -2.132812 2.0625 -3.21875 C 1.457031 -4.300781 1.15625 -5.546875 1.15625 -6.953125 C 1.15625 -8.367188 1.457031 -9.617188 2.0625 -10.703125 C 2.675781 -11.785156 3.523438 -12.632812 4.609375 -13.25 C 5.691406 -13.863281 6.9375 -14.171875 8.34375 -14.171875 C 9.757812 -14.171875 11.007812 -13.863281 12.09375 -13.25 C 13.175781 -12.632812 14.023438 -11.785156 14.640625 -10.703125 C 15.253906 -9.617188 15.5625 -8.367188 15.5625 -6.953125 C 15.5625 -5.546875 15.253906 -4.300781 14.640625 -3.21875 C 14.023438 -2.132812 13.175781 -1.28125 12.09375 -0.65625 C 11.007812 -0.0390625 9.757812 0.265625 8.34375 0.265625 Z M 2.9375 -6.953125 C 2.9375 -5.878906 3.164062 -4.929688 3.625 -4.109375 C 4.082031 -3.285156 4.71875 -2.640625 5.53125 -2.171875 C 6.34375 -1.710938 7.28125 -1.484375 8.34375 -1.484375 C 9.414062 -1.484375 10.351562 -1.710938 11.15625 -2.171875 C 11.96875 -2.640625 12.601562 -3.285156 13.0625 -4.109375 C 13.519531 -4.929688 13.75 -5.878906 13.75 -6.953125 C 13.75 -8.046875 13.519531 -9 13.0625 -9.8125 C 12.601562 -10.625 11.96875 -11.257812 11.15625 -11.71875 C 10.351562 -12.1875 9.414062 -12.421875 8.34375 -12.421875 C 7.28125 -12.421875 6.34375 -12.1875 5.53125 -11.71875 C 4.71875 -11.257812 4.082031 -10.625 3.625 -9.8125 C 3.164062 -9 2.9375 -8.046875 2.9375 -6.953125 Z M 2.9375 -6.953125 "/></g></g></g><g fill="#424141" fill-opacity="1"><g transform="translate(164.860848, 341.355497)"><g><path d="M 2.03125 0 L 2.03125 -13.90625 L 3.65625 -13.90625 L 9.125 -5.671875 L 14.546875 -13.90625 L 16.171875 -13.90625 L 16.171875 0 L 14.421875 0 L 14.421875 -10.640625 L 9.8125 -3.703125 L 8.390625 -3.703125 L 3.78125 -10.65625 L 3.78125 0 Z M 2.03125 0 "/></g></g></g><g fill="#424141" fill-opacity="1"><g transform="translate(183.064819, 341.355497)"><g><path d="M 2.03125 0 L 2.03125 -13.90625 L 3.65625 -13.90625 L 9.125 -5.671875 L 14.546875 -13.90625 L 16.171875 -13.90625 L 16.171875 0 L 14.421875 0 L 14.421875 -10.640625 L 9.8125 -3.703125 L 8.390625 -3.703125 L 3.78125 -10.65625 L 3.78125 0 Z M 2.03125 0 "/></g></g></g><g fill="#424141" fill-opacity="1"><g transform="translate(201.268791, 341.355497)"><g><path d="M 2.03125 0 L 2.03125 -13.90625 L 10.46875 -13.90625 L 10.46875 -12.28125 L 3.78125 -12.28125 L 3.78125 -7.890625 L 9.984375 -7.890625 L 9.984375 -6.28125 L 3.78125 -6.28125 L 3.78125 -1.625 L 10.6875 -1.625 L 10.6875 0 Z M 2.03125 0 "/></g></g></g><g fill="#424141" fill-opacity="1"><g transform="translate(213.252415, 341.355497)"><g><path d="M 2.03125 0 L 2.03125 -13.90625 L 7.328125 -13.90625 C 8.296875 -13.90625 9.140625 -13.722656 9.859375 -13.359375 C 10.578125 -12.992188 11.132812 -12.476562 11.53125 -11.8125 C 11.925781 -11.15625 12.125 -10.363281 12.125 -9.4375 C 12.125 -8.3125 11.832031 -7.378906 11.25 -6.640625 C 10.664062 -5.910156 9.863281 -5.421875 8.84375 -5.171875 L 12.34375 0 L 10.234375 0 L 6.84375 -4.984375 L 3.78125 -4.984375 L 3.78125 0 Z M 3.78125 -6.65625 L 7.140625 -6.65625 C 8.160156 -6.65625 8.945312 -6.894531 9.5 -7.375 C 10.050781 -7.863281 10.328125 -8.550781 10.328125 -9.4375 C 10.328125 -10.320312 10.050781 -11.007812 9.5 -11.5 C 8.945312 -12 8.160156 -12.25 7.140625 -12.25 L 3.78125 -12.25 Z M 3.78125 -6.65625 "/></g></g></g><g fill="#424141" fill-opacity="1"><g transform="translate(226.786156, 341.355497)"><g><path d="M 8.1875 0.265625 C 7.164062 0.265625 6.222656 0.0859375 5.359375 -0.265625 C 4.503906 -0.628906 3.757812 -1.132812 3.125 -1.78125 C 2.5 -2.425781 2.015625 -3.1875 1.671875 -4.0625 C 1.328125 -4.945312 1.15625 -5.910156 1.15625 -6.953125 C 1.15625 -8.003906 1.328125 -8.96875 1.671875 -9.84375 C 2.015625 -10.726562 2.5 -11.488281 3.125 -12.125 C 3.757812 -12.769531 4.503906 -13.269531 5.359375 -13.625 C 6.222656 -13.988281 7.164062 -14.171875 8.1875 -14.171875 C 9.289062 -14.171875 10.300781 -13.96875 11.21875 -13.5625 C 12.132812 -13.15625 12.921875 -12.578125 13.578125 -11.828125 C 14.234375 -11.085938 14.71875 -10.207031 15.03125 -9.1875 L 13.15625 -9.1875 C 12.800781 -10.1875 12.179688 -10.972656 11.296875 -11.546875 C 10.421875 -12.128906 9.40625 -12.421875 8.25 -12.421875 C 7.21875 -12.421875 6.300781 -12.1875 5.5 -11.71875 C 4.707031 -11.257812 4.082031 -10.617188 3.625 -9.796875 C 3.164062 -8.972656 2.9375 -8.023438 2.9375 -6.953125 C 2.9375 -5.878906 3.164062 -4.929688 3.625 -4.109375 C 4.082031 -3.285156 4.707031 -2.640625 5.5 -2.171875 C 6.300781 -1.710938 7.21875 -1.484375 8.25 -1.484375 C 9.425781 -1.484375 10.472656 -1.785156 11.390625 -2.390625 C 12.304688 -3.003906 12.941406 -3.835938 13.296875 -4.890625 L 15.140625 -4.890625 C 14.867188 -3.859375 14.394531 -2.957031 13.71875 -2.1875 C 13.050781 -1.414062 12.242188 -0.8125 11.296875 -0.375 C 10.347656 0.0507812 9.3125 0.265625 8.1875 0.265625 Z M 8.1875 0.265625 "/></g></g></g><g fill="#424141" fill-opacity="1"><g transform="translate(243.002804, 341.355497)"><g><path d="M 2.03125 0 L 2.03125 -13.90625 L 10.46875 -13.90625 L 10.46875 -12.28125 L 3.78125 -12.28125 L 3.78125 -7.890625 L 9.984375 -7.890625 L 9.984375 -6.28125 L 3.78125 -6.28125 L 3.78125 -1.625 L 10.6875 -1.625 L 10.6875 0 Z M 2.03125 0 "/></g></g></g></svg>