<svg width="24" height="24" viewBox="0 0 24 24" fill="none" xmlns="http://www.w3.org/2000/svg">
<path d="M6.74996 4.58334H13.875C14.2949 4.58334 14.6976 4.75016 14.9945 5.04709C15.2915 5.34402 15.4583 5.74675 15.4583 6.16668V7.75001H13.875V6.16668H6.74996V18.8333H13.875V17.25H15.4583V18.8333C15.4583 19.2533 15.2915 19.656 14.9945 19.9529C14.6976 20.2499 14.2949 20.4167 13.875 20.4167H6.74996C6.33003 20.4167 5.92731 20.2499 5.63037 19.9529C5.33344 19.656 5.16663 19.2533 5.16663 18.8333V6.16668C5.16663 5.74675 5.33344 5.34402 5.63037 5.04709C5.92731 4.75016 6.33003 4.58334 6.74996 4.58334Z" fill="#602093"/>
<path d="M14.7379 15.3421L15.8542 16.4583L19.8125 12.5L15.8542 8.54166L14.7379 9.65791L16.7804 11.7083H9.125V13.2917H16.7804L14.7379 15.3421Z" fill="#602093"/>
</svg>
